<svg xmlns="http://www.w3.org/2000/svg" viewBox="0 0 800 1000"><defs><linearGradient id="bg" x2=".7" y2="1"><stop stop-color="#f4e0e2"/><stop offset="1" stop-color="#b88ba7"/><radialGradient id="moon"><stop stop-color="#fff8eb"/><stop offset="1" stop-color="#fff8eb" stop-opacity="0"/></radialGradient></defs><rect width="800" height="1000" fill="url(#bg)"/><circle cx="575" cy="252" r="160" fill="url(#moon)"/><circle cx="575" cy="252" r="78" fill="#fff5e8" fill-opacity=".85"/><path d="M111 835Q149 624 312 600Q387 585 402 506Q422 588 488 606Q647 638 689 835Z" fill="#76526f"/><ellipse cx="400" cy="378" rx="120" ry="161" fill="#f0cbb9"/><path d="M280 366Q259 213 399 197Q538 205 523 361Q473 286 405 284Q344 281 295 410Z" fill="#674a68"/><path d="M101 390l12 27 30 4-22 20 6 29-26-15-26 15 6-29-22-20 30-4zm579-160 10 22 24 3-17 16 4 24-21-12-21 12 4-24-17-16 24-3zm-31 269 9 18 20 3-14 14 3 20-18-10-18 10 3-20-14-14 20-3z" fill="#fff5e9" opacity=".9"/><rect x="54" y="54" width="692" height="892" rx="10" fill="none" stroke="#fff8f2" stroke-opacity=".72" stroke-width="3"/><text x="400" y="852" text-anchor="middle" fill="#fff8f2" font-family="Georgia,serif" font-size="35" letter-spacing="5">SIMPLY HER</text><text x="400" y="891" text-anchor="middle" fill="#fff8f2" fill-opacity=".8" font-family="Arial,sans-serif" font-size="15" letter-spacing="4">TEMPORARY PORTRAIT ART</text></svg>