<svg xmlns="http://www.w3.org/2000/svg" viewBox="0 0 800 1000"><defs><linearGradient id="bg" x2="1" y2="1"><stop stop-color="#f8e3da"/><stop offset=".55" stop-color="#d7a9ad"/><stop offset="1" stop-color="#a67e9f"/><radialGradient id="glow"><stop stop-color="#fff6eb" stop-opacity=".88"/><stop offset="1" stop-color="#fff6eb" stop-opacity="0"/></radialGradient></defs><rect width="800" height="1000" fill="url(#bg)"/><circle cx="393" cy="339" r="300" fill="url(#glow)"/><path d="M133 843Q160 627 320 597Q394 581 404 502Q428 582 489 602Q644 635 671 843Z" fill="#765370"/><ellipse cx="400" cy="378" rx="122" ry="162" fill="#edc4b6"/><path d="M279 364Q255 202 400 193Q543 202 523 365Q478 281 404 278Q340 282 295 405Z" fill="#624963"/><path d="M146 504q40-89 79 0q-40 69-79 0m-24 85q32-72 64 0q-32 57-64 0m455-91q40-89 79 0q-40 69-79 0m12 87q32-72 64 0q-32 57-64 0" fill="#f8d8db" stroke="#fff1eb" stroke-width="5"/><circle cx="184" cy="479" r="14" fill="#fff6ee"/><circle cx="636" cy="485" r="14" fill="#fff6ee"/><rect x="54" y="54" width="692" height="892" rx="10" fill="none" stroke="#fff8f2" stroke-opacity=".72" stroke-width="3"/><text x="400" y="852" text-anchor="middle" fill="#fff8f2" font-family="Georgia,serif" font-size="35" letter-spacing="5">THAT SMILE</text><text x="400" y="891" text-anchor="middle" fill="#fff8f2" fill-opacity=".8" font-family="Arial,sans-serif" font-size="15" letter-spacing="4">TEMPORARY PORTRAIT ART</text></svg>